<?xml version="1.0" standalone="no"?>
<!DOCTYPE svg PUBLIC "-//W3C//DTD SVG 20010904//EN"
 "http://www.w3.org/TR/2001/REC-SVG-20010904/DTD/svg10.dtd">
<svg version="1.0" xmlns="http://www.w3.org/2000/svg"
 width="308.000000pt" height="308.000000pt" viewBox="0 0 308.000000 308.000000"
 preserveAspectRatio="xMidYMid meet">
<metadata>
Created by potrace 1.14, written by Peter Selinger 2001-2017
</metadata>
<g transform="translate(0.000000,308.000000) scale(0.100000,-0.100000)"
fill="#000000" stroke="none">
<path d="M1086 2968 c-3 -7 -7 -26 -11 -43 -3 -16 -20 -80 -36 -141 l-30 -110
-77 -38 c-195 -97 -378 -258 -505 -446 -50 -73 -137 -239 -137 -260 0 -6 -5
-8 -12 -4 -7 4 -8 3 -4 -4 4 -6 0 -35 -9 -64 -51 -165 -70 -311 -62 -464 l5
-102 -104 -103 c-116 -116 -114 -108 -58 -197 19 -29 34 -54 34 -56 0 -2 22
-41 49 -87 26 -46 83 -145 126 -219 43 -74 89 -152 102 -172 12 -21 23 -40 23
-42 0 -3 14 -27 31 -54 l30 -49 82 24 c45 14 108 32 140 39 58 15 59 15 93
-11 44 -33 196 -121 226 -130 12 -4 28 -11 33 -15 18 -12 128 -48 200 -65 39
-9 79 -18 90 -21 66 -15 242 -23 334 -14 238 23 448 95 635 220 l76 52 128
-37 c70 -20 132 -37 139 -38 6 -1 76 111 155 248 79 138 179 311 222 385 l79
135 -108 101 -107 101 7 89 c12 163 -24 384 -92 558 -118 304 -342 549 -643
705 -36 19 -68 37 -73 40 -4 4 -23 73 -43 154 l-36 147 -444 0 c-347 0 -445
-3 -448 -12z m841 -105 c4 -16 18 -77 33 -138 l26 -110 89 -45 c139 -69 231
-136 336 -241 175 -177 294 -393 341 -619 23 -115 33 -304 21 -382 l-10 -57
98 -93 c54 -51 98 -99 99 -106 0 -8 -15 -39 -34 -70 -56 -93 -336 -576 -339
-587 -2 -5 -49 4 -108 22 -140 43 -175 48 -185 31 -25 -40 -184 -133 -312
-183 -292 -112 -628 -109 -919 9 -99 41 -234 118 -275 158 -16 15 -34 28 -41
28 -7 0 -59 -14 -117 -31 -58 -17 -114 -33 -126 -36 -18 -4 -33 16 -104 139
-45 78 -99 170 -118 203 -19 33 -45 78 -57 101 -13 22 -35 59 -49 82 -14 23
-26 44 -26 47 0 3 -12 24 -27 46 l-26 40 96 97 97 98 4 199 c4 216 11 257 75
430 19 51 89 187 130 250 59 92 235 268 334 334 43 29 115 70 161 92 l82 39
33 133 c19 72 36 135 38 140 2 4 177 7 388 7 l385 0 7 -27z"/>
<path d="M1460 2395 c0 -61 -1 -65 -23 -65 -54 0 -199 -45 -292 -90 -217 -107
-363 -276 -446 -520 -29 -83 -33 -111 -37 -227 -5 -143 8 -229 53 -348 l23
-61 -44 -27 c-25 -15 -49 -27 -54 -27 -15 0 -13 -6 27 -75 34 -60 39 -64 58
-52 70 45 95 57 95 49 0 -19 143 -163 204 -207 173 -123 398 -181 603 -155
245 31 434 134 594 327 l35 41 54 -34 54 -34 32 58 c19 31 34 62 34 67 0 6
-23 23 -50 38 -28 16 -50 32 -50 36 0 4 11 35 24 70 34 85 60 258 53 346 -21
240 -109 428 -274 586 -127 121 -290 203 -454 230 l-69 12 0 63 0 64 -75 0
-75 0 0 -65z m305 -249 c192 -67 339 -198 426 -383 22 -45 39 -85 38 -90 -1
-4 1 -15 4 -23 12 -29 27 -135 27 -189 0 -130 -33 -248 -107 -380 -32 -58 -37
-63 -44 -43 -5 12 -20 27 -34 32 -23 9 -25 14 -25 74 0 44 5 67 15 76 14 12
56 10 102 -5 29 -9 48 24 29 51 -12 16 -18 17 -40 6 -15 -7 -44 -12 -66 -12
-55 0 -70 -25 -70 -116 0 -78 20 -133 51 -141 11 -3 19 -9 19 -13 0 -5 -29
-35 -65 -68 -74 -67 -214 -143 -310 -167 -192 -48 -410 -14 -576 91 -105 66
-226 210 -276 329 -44 103 -74 300 -48 307 6 2 11 -21 13 -52 3 -50 7 -59 51
-105 27 -27 51 -58 55 -68 9 -27 50 -18 54 10 3 17 -3 26 -21 32 -14 5 -44 28
-67 50 -41 39 -42 41 -36 88 13 104 14 98 -23 98 l-33 0 6 41 c13 99 82 251
153 339 89 110 210 192 355 240 66 22 87 24 218 22 129 -3 154 -6 225 -31z
m-905 -636 c0 -5 -4 -10 -10 -10 -5 0 -10 5 -10 10 0 6 5 10 10 10 6 0 10 -4
10 -10z m110 -240 c0 -5 -4 -10 -10 -10 -5 0 -10 5 -10 10 0 6 5 10 10 10 6 0
10 -4 10 -10z m1210 -20 c0 -5 -5 -10 -11 -10 -5 0 -7 5 -4 10 3 6 8 10 11 10
2 0 4 -4 4 -10z"/>
<path d="M1357 2143 c-4 -3 -7 -16 -7 -29 0 -16 9 -25 30 -33 17 -6 39 -25 51
-46 25 -41 62 -46 67 -8 2 16 -5 26 -28 38 -17 9 -41 32 -52 51 -18 31 -45 43
-61 27z m123 -107 c0 -3 -4 -8 -10 -11 -5 -3 -10 -1 -10 4 0 6 5 11 10 11 6 0
10 -2 10 -4z"/>
<path d="M1524 2136 c-10 -25 0 -51 21 -54 22 -4 85 -60 85 -75 0 -5 -19 -27
-42 -48 -35 -31 -51 -38 -83 -39 -23 0 -46 5 -52 11 -18 18 -58 7 -61 -18 -4
-26 27 -46 49 -32 7 5 39 9 69 9 55 0 57 1 115 60 l59 60 -43 44 c-24 24 -48
55 -55 67 -13 28 -53 38 -62 15z m36 -16 c0 -5 -5 -10 -11 -10 -5 0 -7 5 -4
10 3 6 8 10 11 10 2 0 4 -4 4 -10z m-125 -210 c3 -5 -1 -10 -10 -10 -9 0 -13
5 -10 10 3 6 8 10 10 10 2 0 7 -4 10 -10z"/>
<path d="M1233 2103 c-15 -6 -17 -49 -3 -58 6 -4 10 -63 10 -144 l0 -138 54
-52 55 -51 103 0 103 0 78 -78 77 -79 0 -199 c0 -109 -4 -206 -9 -213 -13 -20
5 -51 29 -51 24 0 42 31 29 51 -5 7 -9 105 -9 215 l0 201 -92 92 -93 91 -100
0 -100 0 -47 46 -48 45 0 130 c0 83 4 136 12 148 20 32 -12 60 -49 44z m27
-33 c0 -5 -4 -10 -10 -10 -5 0 -10 5 -10 10 0 6 5 10 10 10 6 0 10 -4 10 -10z
m480 -990 c0 -5 -4 -10 -10 -10 -5 0 -10 5 -10 10 0 6 5 10 10 10 6 0 10 -4
10 -10z"/>
<path d="M1743 2103 c-15 -6 -17 -49 -3 -58 6 -3 10 -18 10 -33 0 -21 -20 -47
-83 -110 l-82 -82 -61 0 c-33 0 -65 5 -71 11 -18 18 -58 7 -61 -17 -4 -29 21
-48 47 -35 11 6 51 11 89 11 l69 0 91 88 c87 83 92 90 92 130 0 23 5 42 10 42
14 0 13 33 -2 48 -13 13 -24 14 -45 5z m37 -27 c0 -11 -19 -15 -25 -6 -3 5 1
10 9 10 9 0 16 -2 16 -4z m-340 -266 c0 -5 -7 -10 -16 -10 -8 0 -12 5 -9 10 3
6 10 10 16 10 5 0 9 -4 9 -10z"/>
<path d="M1877 2034 c-3 -3 -3 -46 0 -95 l6 -90 -36 -37 -35 -37 -4 -162 c-3
-126 -1 -164 9 -167 30 -12 65 26 43 48 -6 6 -10 64 -10 142 l0 131 35 39 c32
35 35 43 35 102 0 35 5 72 11 83 7 15 7 24 -2 35 -12 14 -41 19 -52 8z m33
-24 c0 -5 -4 -10 -10 -10 -5 0 -10 5 -10 10 0 6 5 10 10 10 6 0 10 -4 10 -10z
m-70 -530 c0 -5 -5 -10 -11 -10 -5 0 -7 5 -4 10 3 6 8 10 11 10 2 0 4 -4 4
-10z"/>
<path d="M1023 1963 c-7 -2 -13 -17 -13 -33 0 -21 6 -30 23 -35 42 -13 67 -46
67 -88 0 -34 6 -45 45 -79 25 -22 48 -50 51 -64 8 -31 43 -42 61 -18 18 24 12
36 -23 53 -16 7 -44 27 -61 44 -27 25 -33 39 -33 72 0 33 -6 47 -30 70 -16 16
-30 34 -30 41 0 14 -27 44 -38 43 -4 0 -13 -3 -19 -6z m27 -33 c0 -5 -4 -10
-10 -10 -5 0 -10 5 -10 10 0 6 5 10 10 10 6 0 10 -4 10 -10z m190 -260 c0 -5
-4 -10 -10 -10 -5 0 -10 5 -10 10 0 6 5 10 10 10 6 0 10 -4 10 -10z"/>
<path d="M2003 1924 c-3 -8 0 -27 8 -40 16 -31 6 -50 -41 -75 -44 -24 -54 -43
-34 -64 20 -20 35 -15 50 14 6 12 23 35 38 50 14 15 26 35 26 44 0 10 5 26 12
36 6 10 8 26 5 35 -8 21 -56 21 -64 0z m42 -14 c3 -5 1 -10 -4 -10 -6 0 -11 5
-11 10 0 6 2 10 4 10 3 0 8 -4 11 -10z"/>
<path d="M1701 1814 c-25 -42 -27 -89 -4 -135 25 -51 41 -59 67 -33 20 20 5
51 -26 56 -18 2 -24 11 -26 35 -3 28 1 35 25 45 36 16 44 28 32 50 -16 29 -45
21 -68 -18z m44 6 c3 -5 1 -10 -4 -10 -6 0 -11 5 -11 10 0 6 2 10 4 10 3 0 8
-4 11 -10z m5 -150 c0 -5 -4 -10 -10 -10 -5 0 -10 5 -10 10 0 6 5 10 10 10 6
0 10 -4 10 -10z"/>
<path d="M915 1810 c-11 -18 4 -46 29 -56 14 -5 72 -55 131 -111 l106 -103
163 0 163 0 57 -60 57 -60 -4 -102 c-2 -57 -8 -115 -12 -130 -5 -21 -3 -28 13
-37 26 -14 58 13 45 38 -4 9 -9 70 -11 136 l-3 120 -71 67 -72 68 -160 0 -161
0 -101 103 c-56 56 -104 110 -107 120 -7 18 -52 24 -62 7z m725 -630 c0 -5 -2
-10 -4 -10 -3 0 -8 5 -11 10 -3 6 -1 10 4 10 6 0 11 -4 11 -10z"/>
<path d="M2092 1808 c-7 -7 -12 -17 -12 -23 0 -6 -36 -46 -80 -89 l-80 -78 0
-98 0 -99 -55 -52 -55 -52 0 -149 c0 -82 -4 -158 -10 -168 -14 -27 -2 -50 26
-50 29 0 42 25 26 51 -8 12 -12 70 -12 157 l0 138 55 54 55 54 0 100 0 100 69
68 c39 37 81 72 96 78 31 12 42 35 25 55 -15 18 -32 19 -48 3z m28 -24 c0 -8
-5 -12 -10 -9 -6 4 -8 11 -5 16 9 14 15 11 15 -7z m-285 -804 c3 -5 -1 -10
-10 -10 -9 0 -13 5 -10 10 3 6 8 10 10 10 2 0 7 -4 10 -10z"/>
<path d="M885 1676 c-23 -16 -16 -49 12 -56 12 -3 65 -47 116 -97 l94 -93 141
0 c83 0 143 -4 147 -10 12 -19 53 -11 60 11 11 33 -17 56 -50 41 -16 -7 -77
-12 -153 -12 l-127 0 -92 92 c-51 50 -93 97 -93 104 0 22 -35 35 -55 20z m35
-20 c0 -11 -19 -15 -25 -6 -3 5 1 10 9 10 9 0 16 -2 16 -4z m514 -217 c-3 -5
-10 -7 -15 -3 -5 3 -7 10 -3 15 3 5 10 7 15 3 5 -3 7 -10 3 -15z"/>
<path d="M2163 1683 c-7 -2 -13 -13 -13 -22 0 -10 -27 -44 -60 -75 -41 -40
-60 -65 -60 -82 0 -13 -5 -33 -12 -43 -23 -37 25 -68 53 -35 10 12 10 20 1 35
-7 10 -12 27 -12 37 0 20 88 104 129 125 31 15 36 31 16 51 -17 17 -22 18 -42
9z m27 -33 c0 -5 -4 -10 -10 -10 -5 0 -10 5 -10 10 0 6 5 10 10 10 6 0 10 -4
10 -10z m-140 -206 c0 -8 -5 -12 -10 -9 -6 4 -8 11 -5 16 9 14 15 11 15 -7z"/>
<path d="M2170 1506 c-12 -25 -21 -60 -20 -78 4 -70 6 -68 -63 -68 -62 0 -63
0 -115 -53 l-52 -53 0 -156 c0 -94 -4 -159 -10 -163 -18 -11 -11 -43 11 -50
33 -11 56 17 41 50 -7 16 -12 80 -12 165 l0 138 48 46 c47 46 47 46 120 46
l72 0 0 73 c0 72 0 73 31 84 40 15 39 56 -2 61 -23 3 -30 -3 -49 -42z m60 14
c0 -5 -4 -10 -9 -10 -6 0 -13 5 -16 10 -3 6 1 10 9 10 9 0 16 -4 16 -10z
m-280 -604 c0 -3 -4 -8 -10 -11 -5 -3 -10 -1 -10 4 0 6 5 11 10 11 6 0 10 -2
10 -4z"/>
<path d="M955 1446 c-22 -16 -16 -50 10 -54 24 -4 280 -255 301 -295 11 -20
21 -27 37 -25 32 4 29 47 -5 67 -46 28 -288 265 -288 283 0 25 -33 40 -55 24z
m25 -26 c0 -5 -4 -10 -10 -10 -5 0 -10 5 -10 10 0 6 5 10 10 10 6 0 10 -4 10
-10z m330 -314 c0 -3 -4 -8 -10 -11 -5 -3 -10 -1 -10 4 0 6 5 11 10 11 6 0 10
-2 10 -4z"/>
<path d="M1190 1361 c-16 -32 37 -71 55 -41 3 6 20 10 37 10 29 0 30 -2 24
-32 -12 -60 -11 -70 6 -82 14 -8 21 -7 35 7 15 14 16 21 5 37 -6 11 -12 38
-12 60 l0 40 -44 0 c-25 0 -48 5 -51 10 -10 17 -44 11 -55 -9z m40 -17 c0 -8
-5 -12 -10 -9 -6 4 -8 11 -5 16 9 14 15 11 15 -7z m100 -94 c0 -5 -4 -10 -10
-10 -5 0 -10 5 -10 10 0 6 5 10 10 10 6 0 10 -4 10 -10z"/>
<path d="M1499 1364 c-10 -12 -10 -20 -1 -35 8 -13 12 -80 12 -214 l0 -195
-77 -75 -78 -74 65 -1 c37 0 71 -5 77 -11 18 -18 58 -7 61 17 4 30 -24 51 -49
36 -10 -7 -31 -12 -46 -12 -27 0 -26 1 25 53 l52 53 0 202 c0 139 4 208 12
221 9 15 9 23 -1 35 -8 9 -19 16 -26 16 -7 0 -18 -7 -26 -16z m41 -18 c0 -3
-4 -8 -10 -11 -5 -3 -10 -1 -10 4 0 6 5 11 10 11 6 0 10 -2 10 -4z m0 -560 c0
-3 -4 -8 -10 -11 -5 -3 -10 -1 -10 4 0 6 5 11 10 11 6 0 10 -2 10 -4z"/>
<path d="M1407 1339 c-19 -11 -23 -44 -7 -54 6 -4 10 -71 10 -169 l0 -162 -37
-36 c-21 -20 -50 -41 -65 -47 -33 -12 -37 -45 -9 -61 21 -11 51 9 51 35 0 7
20 29 45 49 l44 37 4 177 c1 97 7 187 11 199 10 27 -20 47 -47 32z m33 -23 c0
-11 -19 -15 -25 -6 -3 5 1 10 9 10 9 0 16 -2 16 -4z m-120 -476 c0 -5 -5 -10
-11 -10 -5 0 -7 5 -4 10 3 6 8 10 11 10 2 0 4 -4 4 -10z"/>
<path d="M1045 1170 c-7 -22 9 -50 29 -50 6 0 51 -38 101 -85 l89 -84 -24 -26
c-13 -14 -29 -25 -35 -25 -22 0 -35 -22 -24 -42 12 -22 59 -25 59 -3 0 8 16
32 35 54 l35 39 -95 93 c-53 52 -102 105 -108 119 -16 33 -53 39 -62 10z m35
-10 c0 -5 -5 -10 -11 -10 -5 0 -7 5 -4 10 3 6 8 10 11 10 2 0 4 -4 4 -10z
m140 -290 c0 -5 -4 -10 -10 -10 -5 0 -10 5 -10 10 0 6 5 10 10 10 6 0 10 -4
10 -10z"/>
<path d="M923 1153 c-19 -7 -16 -53 5 -60 33 -12 130 -104 136 -129 5 -20 12
-25 34 -22 43 5 43 44 0 62 -36 16 -113 90 -132 127 -12 24 -24 30 -43 22z
m27 -33 c0 -5 -4 -10 -10 -10 -5 0 -10 5 -10 10 0 6 5 10 10 10 6 0 10 -4 10
-10z m150 -150 c0 -5 -4 -10 -10 -10 -5 0 -10 5 -10 10 0 6 5 10 10 10 6 0 10
-4 10 -10z"/>
<path d="M1610 927 c0 -69 -4 -117 -11 -124 -6 -6 -8 -21 -4 -33 5 -16 13 -20
33 -18 l27 3 -4 105 c-2 58 -1 103 3 100 3 -3 30 -28 61 -54 30 -27 55 -54 55
-62 0 -25 30 -45 51 -34 28 16 24 49 -8 61 -14 5 -63 46 -108 89 -45 44 -84
80 -88 80 -4 0 -7 -51 -7 -113z m205 -87 c3 -5 1 -10 -4 -10 -6 0 -11 5 -11
10 0 6 2 10 4 10 3 0 8 -4 11 -10z m-175 -60 c0 -5 -4 -10 -10 -10 -5 0 -10 5
-10 10 0 6 5 10 10 10 6 0 10 -4 10 -10z"/>
</g>
</svg>
